<svg xmlns="http://www.w3.org/2000/svg" xmlns:xlink="http://www.w3.org/1999/xlink" contentStyleType="text/css" height="549.9px" preserveAspectRatio="none" style="width:918px;height:549px;background:#FFFFFF;" version="1.1" viewBox="0 0 918 549" width="918px" zoomAndPan="magnify"><defs/><g><!--cluster DiagramFrame--><g id="cluster_DiagramFrame"><rect fill="none" height="538.2" rx="2.25" ry="2.25" style="stroke:#181818;stroke-width:0.9;" width="906.3" x="6.3" y="6.3"/><path d="M328.3066,6.3 L328.3066,16.759 L319.3066,25.759 L6.3,25.759 " fill="none" style="stroke:#181818;stroke-width:0.9;"/><text fill="#000000" font-family="sans-serif" font-size="12.6" font-weight="bold" lengthAdjust="spacing" textLength="313.0066" x="9" y="20.7967">Diagram przypadk&#243;w u&#380;ycia dla warstwy prezentacji</text></g><!--cluster SWDSK--><g id="cluster_SWDSK"><rect fill="none" height="476.1" rx="2.25" ry="2.25" style="stroke:#181818;stroke-width:0.9;" width="782.1" x="108.9" y="46.8"/><text fill="#000000" font-family="sans-serif" font-size="12.6" font-weight="bold" lengthAdjust="spacing" textLength="400.5053" x="299.6974" y="62.1967">System Wizualizacji Dzia&#322;ania Konwolucyjnych Sieci Neuronowych</text></g><!--entity u--><g id="elem_u"><ellipse cx="52.5568" cy="247.5" fill="#ADD8E6" rx="7.2" ry="7.2" style="stroke:#000000;stroke-width:1.8;"/><path d="M52.5568,254.7 L52.5568,279 M40.8568,261.9 L64.2568,261.9 M52.5568,279 L40.8568,292.5 M52.5568,279 L64.2568,292.5 " fill="none" style="stroke:#000000;stroke-width:1.8;"/><text fill="#000000" font-family="sans-serif" font-size="12.6" lengthAdjust="spacing" textLength="63.7137" x="20.7" y="308.7967">U&#380;ytkownik</text></g><g id="elem_wybierz_warstw&#281;_sieci"><ellipse cx="802.8865" cy="231.1508" fill="#ADD8E6" rx="65.7865" ry="26.4008" style="stroke:#000000;stroke-width:1.8;"/><text fill="#000000" font-family="sans-serif" font-size="12.6" lengthAdjust="spacing" textLength="45.5027" x="778.3848" y="226.1885">Wybierz</text><text fill="#000000" font-family="sans-serif" font-size="12.6" lengthAdjust="spacing" textLength="74.9171" x="767.1783" y="242.9475">warstw&#281; sieci</text></g><g id="elem_wybierz_zakres_warstw_sieci"><ellipse cx="802.8177" cy="164.5887" fill="#ADD8E6" rx="73.8177" ry="26.4387" style="stroke:#000000;stroke-width:1.8;"/><text fill="#000000" font-family="sans-serif" font-size="12.6" lengthAdjust="spacing" textLength="86.1144" x="755.3102" y="160.5325">Wybierz zakres</text><text fill="#000000" font-family="sans-serif" font-size="12.6" lengthAdjust="spacing" textLength="67.9096" x="767.9132" y="177.2915">warstw sieci</text></g><g id="elem_wybierz_architektur&#281;_sieci"><ellipse cx="598.2364" cy="297.0012" fill="#ADD8E6" rx="61.8364" ry="38.2512" style="stroke:#000000;stroke-width:1.8;"/><text fill="#000000" font-family="sans-serif" font-size="12.6" lengthAdjust="spacing" textLength="45.5027" x="573.7347" y="283.6594">Wybierz</text><text fill="#000000" font-family="sans-serif" font-size="12.6" lengthAdjust="spacing" textLength="65.8301" x="565.3213" y="300.4184">architektur&#281;</text><text fill="#000000" font-family="sans-serif" font-size="12.6" lengthAdjust="spacing" textLength="25.2062" x="587.3836" y="317.1773">sieci</text></g><g id="elem_przeka&#380;_obraz_wej&#347;ciowy"><ellipse cx="802.6138" cy="341.1012" fill="#ADD8E6" rx="52.9138" ry="38.2512" style="stroke:#000000;stroke-width:1.8;"/><text fill="#000000" font-family="sans-serif" font-size="12.6" lengthAdjust="spacing" textLength="45.515" x="778.1059" y="327.7594">Przeka&#380;</text><text fill="#000000" font-family="sans-serif" font-size="12.6" lengthAdjust="spacing" textLength="31.5185" x="786.8545" y="344.5184">obraz</text><text fill="#000000" font-family="sans-serif" font-size="12.6" lengthAdjust="spacing" textLength="56.7123" x="776.008" y="361.2773">wej&#347;ciowy</text></g><g id="elem_przegl&#261;dnij_wyniki_predykcji"><ellipse cx="396.19" cy="252.9012" fill="#ADD8E6" rx="56.89" ry="38.2512" style="stroke:#000000;stroke-width:1.8;"/><text fill="#000000" font-family="sans-serif" font-size="12.6" lengthAdjust="spacing" textLength="62.3355" x="363.2719" y="239.5594">Przegl&#261;dnij</text><text fill="#000000" font-family="sans-serif" font-size="12.6" lengthAdjust="spacing" textLength="34.3055" x="379.0373" y="256.3184">wyniki</text><text fill="#000000" font-family="sans-serif" font-size="12.6" lengthAdjust="spacing" textLength="49.7171" x="373.0818" y="273.0773">predykcji</text></g><g id="elem_przelicz_aktywacje"><ellipse cx="598.2306" cy="201.4508" fill="#ADD8E6" rx="51.9306" ry="26.4008" style="stroke:#000000;stroke-width:1.8;"/><text fill="#000000" font-family="sans-serif" font-size="12.6" lengthAdjust="spacing" textLength="44.1062" x="574.4272" y="196.4885">Przelicz</text><text fill="#000000" font-family="sans-serif" font-size="12.6" lengthAdjust="spacing" textLength="55.3219" x="572.32" y="213.2475">aktywacje</text></g><g id="elem_ustaw_kolorowanie_aktywacji"><ellipse cx="395.8326" cy="162.9012" fill="#ADD8E6" rx="62.8326" ry="38.2512" style="stroke:#000000;stroke-width:1.8;"/><text fill="#000000" font-family="sans-serif" font-size="12.6" lengthAdjust="spacing" textLength="35.0068" x="376.5788" y="149.5594">Ustaw</text><text fill="#000000" font-family="sans-serif" font-size="12.6" lengthAdjust="spacing" textLength="67.239" x="362.2131" y="166.3184">kolorowanie</text><text fill="#000000" font-family="sans-serif" font-size="12.6" lengthAdjust="spacing" textLength="51.1137" x="372.0261" y="183.0773">aktywacji</text></g><g id="elem_manipuluj_kamer&#261;"><ellipse cx="189.5474" cy="376.0508" fill="#ADD8E6" rx="50.9474" ry="26.4008" style="stroke:#000000;stroke-width:1.8;"/><text fill="#000000" font-family="sans-serif" font-size="12.6" lengthAdjust="spacing" textLength="53.9314" x="160.8313" y="371.0885">Manipuluj</text><text fill="#000000" font-family="sans-serif" font-size="12.6" lengthAdjust="spacing" textLength="42.0144" x="170.2906" y="387.8475">kamer&#261;</text></g><g id="elem_por&#243;wnaj_zapami&#281;tane_aktywacje"><ellipse cx="189.6042" cy="275.4012" fill="#ADD8E6" rx="66.3042" ry="38.2512" style="stroke:#000000;stroke-width:1.8;"/><text fill="#000000" font-family="sans-serif" font-size="12.6" lengthAdjust="spacing" textLength="52.5287" x="161.5895" y="262.0594">Por&#243;wnaj</text><text fill="#000000" font-family="sans-serif" font-size="12.6" lengthAdjust="spacing" textLength="72.1485" x="153.5299" y="278.8184">zapami&#281;tane</text><text fill="#000000" font-family="sans-serif" font-size="12.6" lengthAdjust="spacing" textLength="55.3219" x="163.6936" y="295.5773">aktywacje</text></g><g id="elem_resetuj_pozycj&#281;_kamery"><ellipse cx="189.4254" cy="470.5003" fill="#ADD8E6" rx="46.3254" ry="37.6003" style="stroke:#000000;stroke-width:1.8;"/><text fill="#000000" font-family="sans-serif" font-size="12.6" lengthAdjust="spacing" textLength="42.7219" x="166.3141" y="457.1585">Resetuj</text><text fill="#000000" font-family="sans-serif" font-size="12.6" lengthAdjust="spacing" textLength="42.7219" x="168.0645" y="473.9175">pozycj&#281;</text><text fill="#000000" font-family="sans-serif" font-size="12.6" lengthAdjust="spacing" textLength="41.3068" x="170.5223" y="490.6765">kamery</text></g><g id="elem_wyczy&#347;&#263;_&#347;rodowisko_3d"><ellipse cx="396.1418" cy="481.3508" fill="#ADD8E6" rx="71.2418" ry="26.4008" style="stroke:#000000;stroke-width:1.8;"/><text fill="#000000" font-family="sans-serif" font-size="12.6" lengthAdjust="spacing" textLength="49.6925" x="369.5453" y="476.3885">Wyczy&#347;&#263;</text><text fill="#000000" font-family="sans-serif" font-size="12.6" lengthAdjust="spacing" textLength="82.6321" x="356.5761" y="493.1475">&#347;rodowisko 3D</text></g><g id="elem_zmie&#324;_sterowanie_kamery"><ellipse cx="395.8735" cy="403.2012" fill="#ADD8E6" rx="58.3735" ry="38.2512" style="stroke:#000000;stroke-width:1.8;"/><text fill="#000000" font-family="sans-serif" font-size="12.6" lengthAdjust="spacing" textLength="35.0068" x="376.6197" y="389.8594">Zmie&#324;</text><text fill="#000000" font-family="sans-serif" font-size="12.6" lengthAdjust="spacing" textLength="60.9328" x="365.4071" y="406.6184">sterowanie</text><text fill="#000000" font-family="sans-serif" font-size="12.6" lengthAdjust="spacing" textLength="41.3068" x="376.9704" y="423.3773">kamery</text></g><g id="elem_badaj_aktywacje"><ellipse cx="189.6306" cy="162.7508" fill="#ADD8E6" rx="51.9306" ry="26.4008" style="stroke:#000000;stroke-width:1.8;"/><text fill="#000000" font-family="sans-serif" font-size="12.6" lengthAdjust="spacing" textLength="32.226" x="171.7673" y="157.7885">Badaj</text><text fill="#000000" font-family="sans-serif" font-size="12.6" lengthAdjust="spacing" textLength="55.3219" x="163.72" y="174.5475">aktywacje</text></g><!--link u to manipuluj_kamer?--><g id="link_u_manipuluj_kamer&#261;"><path d="M84.861,304.659 C94.059,313.254 101.7,320.4 101.7,320.4 C101.7,320.4 131.913,339.813 156.699,355.743 " fill="none" id="u-manipuluj_kamer&#261;" style="stroke:#181818;stroke-width:0.9;"/></g><!--link resetuj_pozycj?_kamery to manipuluj_kamer?--><g id="link_resetuj_pozycj&#281;_kamery_manipuluj_kamer&#261;"><path d="M189.45,432.81 C189.45,422.739 189.45,417.492 189.45,408.168 " fill="none" id="resetuj_pozycj&#281;_kamery-to-manipuluj_kamer&#261;" style="stroke:#181818;stroke-width:1.8;stroke-dasharray:7.0,7.0;"/><polygon fill="#181818" points="189.45,402.768,185.85,410.868,189.45,407.268,193.05,410.868,189.45,402.768" style="stroke:#181818;stroke-width:1.8;"/><text fill="#000000" font-family="sans-serif" font-size="11.7" lengthAdjust="spacing" textLength="48.1425" x="154.35" y="422.8005">&#171;extend&#187;</text></g><!--reverse link manipuluj_kamer? to wyczy??_?rodowisko_3d--><g id="link_manipuluj_kamer&#261;_wyczy&#347;&#263;_&#347;rodowisko_3d"><path d="M230.4632,397.6658 C270.3242,418.9958 324.9,448.2 324.9,448.2 C324.9,448.2 337.167,454.014 351.441,460.791 " fill="none" id="manipuluj_kamer&#261;-backto-wyczy&#347;&#263;_&#347;rodowisko_3d" style="stroke:#181818;stroke-width:1.8;stroke-dasharray:7.0,7.0;"/><polygon fill="#181818" points="225.702,395.118,231.1453,402.1138,229.6697,397.2411,234.5423,395.7655,225.702,395.118" style="stroke:#181818;stroke-width:1.8;"/><text fill="#000000" font-family="sans-serif" font-size="11.7" lengthAdjust="spacing" textLength="48.1425" x="266.4" y="413.1255">&#171;extend&#187;</text></g><!--reverse link manipuluj_kamer? to zmie?_sterowanie_kamery--><g id="link_manipuluj_kamer&#261;_zmie&#324;_sterowanie_kamery"><path d="M244.2227,383.3042 C274.1477,387.2462 307.287,391.617 338.58,395.748 " fill="none" id="manipuluj_kamer&#261;-backto-zmie&#324;_sterowanie_kamery" style="stroke:#181818;stroke-width:1.8;stroke-dasharray:7.0,7.0;"/><polygon fill="#181818" points="238.869,382.599,246.4295,387.226,243.3305,383.1867,247.3698,380.0877,238.869,382.599" style="stroke:#181818;stroke-width:1.8;"/><text fill="#000000" font-family="sans-serif" font-size="11.7" lengthAdjust="spacing" textLength="48.1425" x="266.4" y="383.4255">&#171;extend&#187;</text></g><!--link u to badaj_aktywacje--><g id="link_u_badaj_aktywacje"><path d="M84.861,246.141 C94.059,237.546 101.7,230.4 101.7,230.4 C101.7,230.4 134.784,204.687 160.11,185.004 " fill="none" id="u-badaj_aktywacje" style="stroke:#181818;stroke-width:0.9;"/></g><!--link badaj_aktywacje to ustaw_kolorowanie_aktywacji--><g id="link_badaj_aktywacje_ustaw_kolorowanie_aktywacji"><path d="M241.227,162.9 C268.938,162.9 298.062,162.9 327.384,162.9 " fill="none" id="badaj_aktywacje-to-ustaw_kolorowanie_aktywacji" style="stroke:#181818;stroke-width:1.8;stroke-dasharray:7.0,7.0;"/><polygon fill="#181818" points="332.784,162.9,324.684,159.3,328.284,162.9,324.684,166.5,332.784,162.9" style="stroke:#181818;stroke-width:1.8;"/><text fill="#000000" font-family="sans-serif" font-size="11.7" lengthAdjust="spacing" textLength="50.0906" x="265.5" y="159.3255">&#171;include&#187;</text></g><!--link badaj_aktywacje to przelicz_aktywacje--><g id="link_badaj_aktywacje_przelicz_aktywacje"><path d="M233.289,148.536 C272.673,135.369 324.9,117.9 324.9,117.9 C324.9,117.9 467.1,117.9 467.1,117.9 C467.1,117.9 521.9502,153.2005 560.4612,177.9865 " fill="none" id="badaj_aktywacje-to-przelicz_aktywacje" style="stroke:#181818;stroke-width:1.8;stroke-dasharray:7.0,7.0;"/><polygon fill="#181818" points="565.002,180.909,560.1391,173.498,561.218,178.4736,556.2424,179.5525,565.002,180.909" style="stroke:#181818;stroke-width:1.8;"/><text fill="#000000" font-family="sans-serif" font-size="11.7" lengthAdjust="spacing" textLength="50.0906" x="371.25" y="114.3255">&#171;include&#187;</text></g><!--reverse link przelicz_aktywacje to wybierz_warstw?_sieci--><g id="link_przelicz_aktywacje_wybierz_warstw&#281;_sieci"><path d="M652.7224,210.6213 C664.6204,212.6193 668.7,213.3 668.7,213.3 C668.7,213.3 705.465,218.268 740.367,222.984 " fill="none" id="przelicz_aktywacje-backto-wybierz_warstw&#281;_sieci" style="stroke:#181818;stroke-width:1.8;stroke-dasharray:7.0,7.0;"/><polygon fill="#181818" points="647.397,209.727,654.789,214.6187,651.8349,210.4722,655.9813,207.5181,647.397,209.727" style="stroke:#181818;stroke-width:1.8;"/><text fill="#000000" font-family="sans-serif" font-size="11.7" lengthAdjust="spacing" textLength="48.1425" x="670.5" y="209.7255">&#171;extend&#187;</text></g><!--reverse link przelicz_aktywacje to wybierz_zakres_warstw_sieci--><g id="link_przelicz_aktywacje_wybierz_zakres_warstw_sieci"><path d="M652.3589,191.886 C679.0889,187.026 707.4,181.881 736.488,176.589 " fill="none" id="przelicz_aktywacje-backto-wybierz_zakres_warstw_sieci" style="stroke:#181818;stroke-width:1.8;stroke-dasharray:7.0,7.0;"/><polygon fill="#181818" points="647.046,192.852,655.6593,194.945,651.4734,192.047,654.3714,187.8611,647.046,192.852" style="stroke:#181818;stroke-width:1.8;"/><text fill="#000000" font-family="sans-serif" font-size="11.7" lengthAdjust="spacing" textLength="48.1425" x="670.5" y="176.4255">&#171;extend&#187;</text></g><!--link przelicz_aktywacje to przeka?_obraz_wej?ciowy--><g id="link_przelicz_aktywacje_przeka&#380;_obraz_wej&#347;ciowy"><path d="M629.775,222.786 C665.703,247.482 720.6348,285.2383 759.4068,311.8873 " fill="none" id="przelicz_aktywacje-to-przeka&#380;_obraz_wej&#347;ciowy" style="stroke:#181818;stroke-width:1.8;stroke-dasharray:7.0,7.0;"/><polygon fill="#181818" points="763.857,314.946,759.2209,307.3911,760.1485,312.3971,755.1426,313.3247,763.857,314.946" style="stroke:#181818;stroke-width:1.8;"/><text fill="#000000" font-family="sans-serif" font-size="11.7" lengthAdjust="spacing" textLength="50.0906" x="669.6" y="247.5255">&#171;include&#187;</text></g><!--link przegl?dnij_wyniki_predykcji to przelicz_aktywacje--><g id="link_przegl&#261;dnij_wyniki_predykcji_przelicz_aktywacje"><path d="M449.253,239.49 C481.005,231.354 515.8961,222.4166 546.3431,214.6136 " fill="none" id="przegl&#261;dnij_wyniki_predykcji-to-przelicz_aktywacje" style="stroke:#181818;stroke-width:1.8;stroke-dasharray:7.0,7.0;"/><polygon fill="#181818" points="551.574,213.273,542.8338,211.7966,547.2149,214.3902,544.6213,218.7712,551.574,213.273" style="stroke:#181818;stroke-width:1.8;"/><text fill="#000000" font-family="sans-serif" font-size="11.7" lengthAdjust="spacing" textLength="48.1425" x="477.9" y="216.9255">&#171;extend&#187;</text></g><!--link przelicz_aktywacje to wybierz_architektur?_sieci--><g id="link_przelicz_aktywacje_wybierz_architektur&#281;_sieci"><path d="M598.05,228.42 C598.05,237.834 598.05,243.189 598.05,253.35 " fill="none" id="przelicz_aktywacje-to-wybierz_architektur&#281;_sieci" style="stroke:#181818;stroke-width:1.8;stroke-dasharray:7.0,7.0;"/><polygon fill="#181818" points="598.05,258.75,601.65,250.65,598.05,254.25,594.45,250.65,598.05,258.75" style="stroke:#181818;stroke-width:1.8;"/><text fill="#000000" font-family="sans-serif" font-size="11.7" lengthAdjust="spacing" textLength="50.0906" x="562.05" y="248.4255">&#171;include&#187;</text></g><!--link u to por?wnaj_zapami?tane_aktywacje--><g id="link_u_por&#243;wnaj_zapami&#281;tane_aktywacje"><path d="M84.861,275.4 C96.309,275.4 109.737,275.4 123.048,275.4 " fill="none" id="u-por&#243;wnaj_zapami&#281;tane_aktywacje" style="stroke:#181818;stroke-width:0.9;"/></g><!--link por?wnaj_zapami?tane_aktywacje to przeka?_obraz_wej?ciowy--><g id="link_por&#243;wnaj_zapami&#281;tane_aktywacje_przeka&#380;_obraz_wej&#347;ciowy"><path d="M238.635,301.149 C252.81,308.709 264.6,315 264.6,315 C264.6,315 536.4,342 536.4,342 C536.4,342 659.7,342 659.7,342 C659.7,342 703.4491,341.7186 743.9581,341.4666 " fill="none" id="por&#243;wnaj_zapami&#281;tane_aktywacje-to-przeka&#380;_obraz_wej&#347;ciowy" style="stroke:#181818;stroke-width:1.8;stroke-dasharray:7.0,7.0;"/><polygon fill="#181818" points="749.358,341.433,741.2358,337.8835,744.8581,341.461,741.2806,345.0833,749.358,341.433" style="stroke:#181818;stroke-width:1.8;"/><text fill="#000000" font-family="sans-serif" font-size="11.7" lengthAdjust="spacing" textLength="50.0906" x="477" y="333.0255">&#171;include&#187;</text></g><!--link por?wnaj_zapami?tane_aktywacje to przegl?dnij_wyniki_predykcji--><g id="link_por&#243;wnaj_zapami&#281;tane_aktywacje_przegl&#261;dnij_wyniki_predykcji"><path d="M254.574,268.344 C281.898,265.338 308.0843,262.4631 334.3643,259.5741 " fill="none" id="por&#243;wnaj_zapami&#281;tane_aktywacje-to-przegl&#261;dnij_wyniki_predykcji" style="stroke:#181818;stroke-width:1.8;stroke-dasharray:7.0,7.0;"/><polygon fill="#181818" points="339.732,258.984,331.2871,256.2907,335.2589,259.4757,332.0739,263.4476,339.732,258.984" style="stroke:#181818;stroke-width:1.8;"/><text fill="#000000" font-family="sans-serif" font-size="11.7" lengthAdjust="spacing" textLength="50.0906" x="265.5" y="259.2255">&#171;include&#187;</text></g><!--link por?wnaj_zapami?tane_aktywacje to wybierz_architektur?_sieci--><g id="link_por&#243;wnaj_zapami&#281;tane_aktywacje_wybierz_architektur&#281;_sieci"><path d="M248.976,292.653 C285.237,303.327 324.9,315 324.9,315 C324.9,315 467.1,315 467.1,315 C467.1,315 498.1831,310.7011 532.4821,305.9491 " fill="none" id="por&#243;wnaj_zapami&#281;tane_aktywacje-to-wybierz_architektur&#281;_sieci" style="stroke:#181818;stroke-width:1.8;stroke-dasharray:7.0,7.0;"/><polygon fill="#181818" points="537.831,305.208,529.3136,302.7537,533.3736,305.8256,530.3017,309.8855,537.831,305.208" style="stroke:#181818;stroke-width:1.8;"/><text fill="#000000" font-family="sans-serif" font-size="11.7" lengthAdjust="spacing" textLength="50.0906" x="371.25" y="311.4255">&#171;include&#187;</text></g><!--link por?wnaj_zapami?tane_aktywacje to ustaw_kolorowanie_aktywacji--><g id="link_por&#243;wnaj_zapami&#281;tane_aktywacje_ustaw_kolorowanie_aktywacji"><path d="M237.834,249.309 C271.152,231.003 310.7444,209.2495 343.8464,191.0605 " fill="none" id="por&#243;wnaj_zapami&#281;tane_aktywacje-to-ustaw_kolorowanie_aktywacji" style="stroke:#181818;stroke-width:1.8;stroke-dasharray:7.0,7.0;"/><polygon fill="#181818" points="348.579,188.46,339.7464,189.2057,344.6352,190.6271,343.2138,195.5158,348.579,188.46" style="stroke:#181818;stroke-width:1.8;"/><text fill="#000000" font-family="sans-serif" font-size="11.7" lengthAdjust="spacing" textLength="50.0906" x="265.5" y="206.1255">&#171;include&#187;</text></g><!--SRC=[hLPBRjim4Dtx58IxTj4cw2P9lIYCRe8MHOqWG3yWQ6fYqwH9WQAWKaKsHOEU8SWnkiskrhrAKhBZZ_o9x8qXpJpFctap7Ef6amcW7YD3z_0-l904jIi3YdLkOnBnVtypb1QFbZA28a5GHdHYCklya8CqX8vP6_ri8KIeKHgrhnpMS9L9nji-O8fU23OScO58uLmm2MS3GIWFZoy7IaJd1dwOqjXoOHBEP4ny1XvXR0meLiBwboMlL14a4AFNRvRCcaZkpIUld5d0ZK568UqJG17JG0rJqjFuHoA70b3_kjU_3ANtRM9WWgvPdXB1SbyQwkMC5B-8TDLVAfafaL8xbfQEK9y1PUWZf5f9bJcBby55HYXDW984KFlQ3XZe77sJbMpJUvJulmLbijABPouSNC-HgvOi9rn3yiHPmrX2Ak8ZqJe-ekc86U0crQvGPrXdNe8SoFn9vy19yUYPr42JKcSO5m-KkOO4thZ2u030Jzw3M8TYUXT9DWw4raqwyq_kH4IMX_DGCSzmk0JXEU8WTi5eAJStDdD32dC-xy5pSsEIgyIGp3Dm9PHMcPj-M2Gi2qmz2Yz0vipDo_lWuiIfI8EotAqaFRqBP9EP0rVMvWegxLQQ984Y9p6PiEczMmLG8-aCYXTnHn3uizjSfYmoLhcbu_AuXDBAkTKb0i_SPTdsW5DASriyJFzudk91gqXbBE4AdVQgyrdvyO8JdqQD2RzC61I_mn8mi3132pNc0OAV_8SM-Ov4PLkNspZmvcPTS_5l_K-AEftr6NIEzRcyw7oDI3825sV4A9UG96zFllkRgBEngsVeuiAHWeowtMS4xMnkM-E86vko574coOgqphmgTZrDT-lsy5HCKf564BBVDsRD2bmEvMBLOEgbS6BApgOxUaNUXa7hhk7TaJS7xcwvxbOrtJlbDExikCiQfXm-obpEspuDrjeNfcxNNlP9x5hTHrAn4Kr5iLtHez3ih-q19FiVvTPjwpy0]--></g></svg>